# xmcd
#
# Track frame offsets: 
#        150
#        10755
#        23503
#        35790
#        46950
#        58692
#        71384
#        80034
#        91575
#        102577
#        116441
#        126524
#        138872
#        149574
#        163015
#        174654
#        186933
#        197308
#        210324
#        219668
#        229271
#        240688
#        253385
#        264979
#        275144
#
# Disc length: 3820 seconds
#
# Revision: 0
# Processed by: cddbd v1.5.2PL0 Copyright (c) Steve Scherf et al.
# Submitted via: ExactAudioCopyFreeDBPlugin 1.0
#
DISCID=700eea19
DTITLE=Various Artist - I Just Love Country - CD2
DYEAR=1900
DGENRE=Country
TTITLE0=Jim Reeves - He'll Have To Go
TTITLE1=Johnny Cash - Folsom Prison Blues
TTITLE2=Hank Williams - Cold Cold Heart
TTITLE3=Stonewall Jackson - Waterloo
TTITLE4=Tennessee Ernie Ford - Sixteen Tons
TTITLE5=Patsy Cline - I Fall To Pieces
TTITLE6=Don Gibson - Blue Blue Day
TTITLE7=Jean Shepherd and Ferlin Husky - A Dear John Letter
TTITLE8=Hank Snow - Let Me Go Lover
TTITLE9=Tennessee Ernie Ford - Mule Train
TTITLE10=Hank Thompson - Rub A Dub Dub
TTITLE11=Webb Pierce - Back Street Affair
TTITLE12=Carl Smith - Don't Just Stand There
TTITLE13=Hank Snow - Rhumba Boogie
TTITLE14=Faron Young - Country Girl
TTITLE15=Ray Price - The Same Old Me
TTITLE16=Ferlin Husky - Wings Of A Dove
TTITLE17=Bobby Helms - My Special Angel
TTITLE18=Webb Pierce - Honky Tonk Song
TTITLE19=The Louvin Brothers - I Don't Believe You've Met My Baby
TTITLE20=Eddy Arnold - The Cattle Call
TTITLE21=Porter Wagoner - A Satisfied Mind
TTITLE22=Goldie Hill - I Let The Stars Get In My Eyes
TTITLE23=Hank Thompson - Wake Up Irene
TTITLE24=Sonny James - Young Love
EXTD=
EXTT0=
EXTT1=
EXTT2=
EXTT3=
EXTT4=
EXTT5=
EXTT6=
EXTT7=
EXTT8=
EXTT9=
EXTT10=
EXTT11=
EXTT12=
EXTT13=
EXTT14=
EXTT15=
EXTT16=
EXTT17=
EXTT18=
EXTT19=
EXTT20=
EXTT21=
EXTT22=
EXTT23=
EXTT24=
PLAYORDER=
